<?xml version="1.0" encoding="UTF-8" standalone="no"?>
<svg
   xmlns:dc="http://purl.org/dc/elements/1.1/"
   xmlns:cc="http://creativecommons.org/ns#"
   xmlns:rdf="http://www.w3.org/1999/02/22-rdf-syntax-ns#"
   xmlns:svg="http://www.w3.org/2000/svg"
   xmlns="http://www.w3.org/2000/svg"
   xmlns:sodipodi="http://sodipodi.sourceforge.net/DTD/sodipodi-0.dtd"
   xmlns:inkscape="http://www.inkscape.org/namespaces/inkscape"
   version="1.1"
   id="Capa_1"
   x="0px"
   y="0px"
   viewBox="0 0 60 60"
   style="enable-background:new 0 0 60 60;"
   xml:space="preserve"
   sodipodi:docname="virgooldoon-logo.svg"
   inkscape:version="1.0 (4035a4f, 2020-05-01)"
   inkscape:export-filename="/Users/ali/Desktop/virgooldoon-logo.png"
   inkscape:export-xdpi="71.529411"
   inkscape:export-ydpi="71.529411"><metadata
   id="metadata975"><rdf:RDF><cc:Work
       rdf:about=""><dc:format>image/svg+xml</dc:format><dc:type
         rdf:resource="http://purl.org/dc/dcmitype/StillImage" /><dc:title></dc:title></cc:Work></rdf:RDF></metadata><defs
   id="defs973"><filter
     y="-0.5"
     x="-0.5"
     width="2"
     id="filter-3"
     height="2"
     filterUnits="objectBoundingBox"><feOffset
       id="feOffset12"
       result="shadowOffsetOuter1"
       in="SourceAlpha"
       dy="1"
       dx="0" /><feGaussianBlur
       id="feGaussianBlur14"
       stdDeviation="1.5"
       result="shadowBlurOuter1"
       in="shadowOffsetOuter1" /><feColorMatrix
       id="feColorMatrix16"
       values="0 0 0 0 0   0 0 0 0 0   0 0 0 0 0  0 0 0 0.5 0"
       type="matrix"
       in="shadowBlurOuter1" /></filter><linearGradient
     gradientTransform="matrix(17.690104,4.7400492,6.4341612,-24.012617,8415.1928,31865.547)"
     y2="1149.8015"
     x2="-891.61719"
     y1="1149.3007"
     x1="-892.57239"
     gradientUnits="userSpaceOnUse"
     id="Shape_1_"><stop
       style="stop-color:#0173bc;stop-opacity:1"
       id="stop19"
       class="page_speed_977234731"
       offset="0" /><stop
       style="stop-color:#0159aa;stop-opacity:1"
       id="stop21"
       class="page_speed_833252388"
       offset="1" /></linearGradient></defs><sodipodi:namedview
   inkscape:pagecheckerboard="true"
   inkscape:document-rotation="0"
   pagecolor="#ffffff"
   bordercolor="#666666"
   borderopacity="1"
   objecttolerance="10"
   gridtolerance="10"
   guidetolerance="10"
   inkscape:pageopacity="0"
   inkscape:pageshadow="2"
   inkscape:window-width="1474"
   inkscape:window-height="923"
   id="namedview971"
   showgrid="false"
   inkscape:zoom="5.2502679"
   inkscape:cx="23.900969"
   inkscape:cy="34.300655"
   inkscape:window-x="360"
   inkscape:window-y="73"
   inkscape:window-maximized="0"
   inkscape:current-layer="Capa_1" />
<rect
   style="fill:none;fill-opacity:1"
   id="rect1028"
   width="57.711342"
   height="40.378891"
   x="0.95233202"
   y="14.284986" /><path
   d="M56.99,13.5H55v-3H45v3h-4V7.706C41,5.938,39.562,4.5,37.794,4.5H22.206C20.438,4.5,19,5.938,19,7.706V13.5h-4v-3H5v3H3.01  C1.351,13.5,0,14.851,0,16.51v35.98c0,1.659,1.351,3.01,3.01,3.01h53.98c1.659,0,3.01-1.351,3.01-3.01V16.51  C60,14.851,58.649,13.5,56.99,13.5z M47,12.5h6v1h-6V12.5z M21,7.706C21,7.041,21.541,6.5,22.206,6.5h15.588  C38.459,6.5,39,7.041,39,7.706V13.5H21V7.706z M19,15.5h22h4h5v38H10v-38h5H19z M7,12.5h6v1H7V12.5z M2,52.49V16.51  c0-0.557,0.453-1.01,1.01-1.01H5h3v38H3.01C2.453,53.5,2,53.047,2,52.49z M58,52.49c0,0.557-0.453,1.01-1.01,1.01H52v-38h3h1.99  c0.557,0,1.01,0.453,1.01,1.01V52.49z"
   id="path938"
   style="fill:#f9f9f9" />
<g
   id="g940">
</g>
<g
   id="g942">
</g>
<g
   id="g944">
</g>
<g
   id="g946">
</g>
<g
   id="g948">
</g>
<g
   id="g950">
</g>
<g
   id="g952">
</g>
<g
   id="g954">
</g>
<g
   id="g956">
</g>
<g
   id="g958">
</g>
<g
   id="g960">
</g>
<g
   id="g962">
</g>
<g
   id="g964">
</g>
<g
   id="g966">
</g>
<g
   id="g968">
</g>
<path
   d="m 30.964844,23.984375 c -0.383954,-0.01142 -0.778907,-7.26e-4 -1.183594,0.0332 -3.839913,0.324753 -6.572543,2.440568 -7.855469,6.148438 -1.236875,3.570848 -0.315256,6.720216 2.240235,9.412109 0.646841,0.686774 1.481963,1.191419 2.263672,1.792969 -1.113456,0.915272 -2.282027,1.862133 -3.46875,2.841797 1.167081,1.358296 2.297227,2.67852 3.449218,4.023437 0.174997,-0.13048 0.282253,-0.213375 0.388672,-0.296875 1.884996,-1.530068 3.793774,-3.045493 5.666016,-4.597656 1.635032,-1.363658 3.286762,-2.722242 4.835937,-4.183594 1.535797,-1.446261 2.25077,-3.346123 2.425781,-5.427734 0.270632,-3.20279 -1.385534,-6.703529 -4.447265,-8.511719 -0.997984,0.978332 -2.431811,2.392869 -2.878906,2.820312 0.459094,0.306063 0.950889,0.555554 1.339843,0.90625 1.543066,1.390035 2.180141,3.111926 1.644532,5.152344 -0.554739,2.12331 -1.995831,3.423775 -4.119141,3.761719 -3.58986,0.580244 -5.986443,-2.314139 -5.960937,-4.992187 0.0064,-1.166864 0.323538,-2.263682 1.126953,-3.13086 0.803414,-0.87993 1.664589,-1.703766 2.52539,-2.539062 l 3.201172,-3.097657 c -0.386748,-0.06046 -0.781823,-0.102988 -1.193359,-0.115234 z"
   style="fill:#ffffff;stroke-width:0.0901748"
   id="path873" /><g
   transform="matrix(-0.06376306,-0.06376306,0.06376306,-0.06376306,-26.974412,44.541498)"
   id="g881"
   style="fill:#ffffff" /></svg>
